<svg width="28" height="32" viewBox="0 0 28 32" fill="none" xmlns="http://www.w3.org/2000/svg">
<path d="M25.0526 29.0909H8.84211V8.72727H25.0526M25.0526 5.81818H8.84211C8.06041 5.81818 7.31074 6.12467 6.758 6.67023C6.20526 7.2158 5.89474 7.95573 5.89474 8.72727V29.0909C5.89474 29.8624 6.20526 30.6024 6.758 31.1479C7.31074 31.6935 8.06041 32 8.84211 32H25.0526C25.8343 32 26.584 31.6935 27.1367 31.1479C27.6895 30.6024 28 29.8624 28 29.0909V8.72727C28 7.95573 27.6895 7.2158 27.1367 6.67023C26.584 6.12467 25.8343 5.81818 25.0526 5.81818ZM20.6316 0H2.94737C2.16568 0 1.416 0.306493 0.863264 0.852053C0.310525 1.39761 0 2.13755 0 2.90909V23.2727H2.94737V2.90909H20.6316V0Z" fill="black"/>
</svg>
