<svg width="24" height="32" viewBox="0 0 24 32" fill="none" xmlns="http://www.w3.org/2000/svg">
<path d="M24 29.3333L24 6.66667C24 5.95942 23.719 5.28115 23.219 4.78105C22.7189 4.28095 22.0406 4 21.3333 4L16 4L16 6.66667L21.3333 6.66667L21.3333 29.3333L2.66667 29.3333L2.66667 6.66667L8 6.66667L8 4L2.66667 4C1.95942 4 1.28115 4.28095 0.78105 4.78105C0.280953 5.28114 1.17002e-06 5.95942 1.1391e-06 6.66667L1.48311e-07 29.3333C1.17396e-07 30.0406 0.280952 30.7189 0.781049 31.219C1.28115 31.719 1.95942 32 2.66667 32L21.3333 32C22.0406 32 22.7189 31.719 23.219 31.219C23.719 30.7189 24 30.0406 24 29.3333ZM8 9.33333L10.6667 9.33333L10.6667 -5.82818e-07L13.3333 -4.66255e-07L13.3333 9.33333L16 9.33333L12 14.6667L8 9.33333ZM10.6667 26.6667L10.6667 17.3333L13.3333 17.3333L13.3333 26.6667L10.6667 26.6667ZM16 26.6667L16 17.3333L18.6667 17.3333L18.6667 26.6667L16 26.6667ZM5.33333 22.6667L5.33333 17.3333L8 17.3333L8 22.6667L5.33333 22.6667Z" fill="black"/>
</svg>
