<svg width="24" height="34" viewBox="0 0 24 34" fill="none" xmlns="http://www.w3.org/2000/svg">
<path d="M12 0C15.1826 0 18.2348 1.25375 20.4853 3.48543C22.7357 5.71711 24 8.74392 24 11.9C24 15.946 21.96 19.499 18.8571 21.658V25.5C18.8571 25.9509 18.6765 26.3833 18.355 26.7021C18.0335 27.0209 17.5975 27.2 17.1429 27.2H6.85714C6.40249 27.2 5.96645 27.0209 5.64496 26.7021C5.32347 26.3833 5.14286 25.9509 5.14286 25.5V21.658C2.04 19.499 0 15.946 0 11.9C0 8.74392 1.26428 5.71711 3.51472 3.48543C5.76516 1.25375 8.8174 0 12 0M6.85714 32.3V30.6H17.1429V32.3C17.1429 32.7509 16.9622 33.1833 16.6408 33.5021C16.3193 33.8209 15.8832 34 15.4286 34H8.57143C8.11677 34 7.68074 33.8209 7.35925 33.5021C7.03775 33.1833 6.85714 32.7509 6.85714 32.3ZM12 3.4C9.72672 3.4 7.54654 4.29553 5.93908 5.88959C4.33163 7.48365 3.42857 9.64566 3.42857 11.9C3.42857 15.385 5.53714 18.377 8.57143 19.686V23.8H15.4286V19.686C18.4629 18.377 20.5714 15.385 20.5714 11.9C20.5714 9.64566 19.6684 7.48365 18.0609 5.88959C16.4535 4.29553 14.2733 3.4 12 3.4V3.4Z" fill="black"/>
</svg>
